<svg width="51" height="51" viewBox="0 0 51 51" fill="none" xmlns="http://www.w3.org/2000/svg">
<path d="M25.076 25.8185C19.1658 25.8185 14.2535 20.9105 14.2535 15.1028C14.2535 9.09425 19.1658 4.18408 25.0781 4.18408C31.1912 4.18408 35.9005 9.09216 35.9005 15.1028C35.89 17.9544 34.7477 20.6852 32.7246 22.695C30.7015 24.7047 27.9632 25.829 25.1115 25.8206L25.076 25.8185ZM25.076 10.496C22.5738 10.496 20.67 12.5985 20.67 15.1049C20.67 17.607 22.5738 19.5108 25.0781 19.5108C27.6827 19.5108 29.4861 17.607 29.4861 15.1049C29.4882 12.5964 27.6827 10.496 25.076 10.496ZM29.3857 34.7351L35.5009 40.6453C36.7039 41.9445 36.7039 43.8483 35.5009 45.0513C34.1996 46.3505 32.1933 46.3505 31.1912 45.0513L25.0781 39.0406L19.1658 45.0513C18.5653 45.6517 17.762 45.9509 16.8582 45.9509C16.1573 45.9509 15.3561 45.6496 14.6531 45.0513C13.4501 43.8483 13.4501 41.9445 14.6531 40.6432L20.8667 34.733C18.6227 34.0685 16.4702 33.1275 14.4585 31.9317C12.9543 31.1304 12.6551 29.1283 13.4564 27.624C14.4585 26.1219 16.2619 25.7223 17.8666 26.7244C20.0394 28.0504 22.5357 28.752 25.0812 28.752C27.6267 28.752 30.123 28.0504 32.2958 26.7244C33.9005 25.7223 35.8022 26.1219 36.7039 27.624C37.6077 29.1283 37.2039 31.1283 35.8001 31.9317C33.8984 33.1346 31.6933 34.0363 29.3878 34.7372L29.3857 34.7351Z" fill="white"/>
</svg>
