<svg width="55" height="55" viewBox="0 0 55 55" fill="none" xmlns="http://www.w3.org/2000/svg">
<path d="M27.1838 4.53271C22.7012 4.53271 18.3192 5.86196 14.5921 8.35237C10.8649 10.8428 7.95995 14.3825 6.24453 18.5239C4.52911 22.6653 4.08028 27.2223 4.95479 31.6188C5.8293 36.0153 7.98788 40.0537 11.1576 43.2234C14.3273 46.3931 18.3657 48.5517 22.7621 49.4262C27.1586 50.3007 31.7157 49.8518 35.8571 48.1364C39.9985 46.421 43.5382 43.516 46.0286 39.7889C48.519 36.0617 49.8482 31.6798 49.8482 27.1972C49.8482 24.2208 49.262 21.2736 48.123 18.5239C46.984 15.7741 45.3146 13.2756 43.21 11.171C41.1054 9.06639 38.6069 7.39694 35.8571 6.25795C33.1073 5.11895 30.1601 4.53271 27.1838 4.53271ZM34.3911 38.8739C34.3065 39.0857 34.1776 39.2768 34.013 39.4346C33.8484 39.5924 33.6519 39.7132 33.4368 39.7887C33.2217 39.8643 32.9929 39.893 32.7658 39.8728C32.5387 39.8526 32.3185 39.784 32.1201 39.6717L25.9667 34.8895L22.0185 38.534C21.9269 38.6016 21.8197 38.6452 21.7069 38.6606C21.594 38.6761 21.4791 38.6629 21.3726 38.6223L22.1296 31.8479L22.1523 31.8683L22.1681 31.7346C22.1681 31.7346 33.2397 21.6535 33.6907 21.2251C34.1486 20.7967 33.9967 20.7038 33.9967 20.7038C34.0239 20.1825 33.1785 20.7038 33.1785 20.7038L18.5078 30.1413L12.3997 28.0607C12.3997 28.0607 11.4614 27.7253 11.373 26.9841C11.2801 26.2498 12.4292 25.8509 12.4292 25.8509L36.7187 16.2004C36.7187 16.2004 38.7155 15.3119 38.7155 16.7851L34.3911 38.8739Z" fill="white"/>
</svg>
