<svg width="54" height="52" viewBox="0 0 54 52" fill="none" xmlns="http://www.w3.org/2000/svg">
<path d="M33.9142 4.29541H20.1083C7.49925 4.29541 4.5 7.15833 4.5 19.1727V32.3512C4.5 44.3849 7.47675 47.25 20.0858 47.25H33.8918C46.4985 47.25 49.5 44.4085 49.5 32.3726V19.1942C49.5 7.15833 46.5233 4.29541 33.9142 4.29541ZM40.8285 34.9435H37.5457C36.3038 34.9435 35.9303 33.9834 33.7028 31.8572C31.7588 30.0681 30.9375 29.8448 30.4447 29.8448C29.7653 29.8448 29.5785 30.023 29.5785 30.9186V33.7365C29.5785 34.4989 29.3197 34.9456 27.234 34.9456C25.2098 34.8158 23.2468 34.2287 21.5068 33.2329C19.7669 32.237 18.2996 30.8608 17.226 29.2176C14.6771 26.1893 12.9036 22.6351 12.0465 18.8377C12.0465 18.3673 12.2333 17.9421 13.1715 17.9421H16.452C17.2957 17.9421 17.5995 18.3007 17.9303 19.1276C19.5232 23.6035 22.2412 27.4952 23.3438 27.4952C23.7668 27.4952 23.9513 27.3169 23.9513 26.3096V21.7006C23.8118 19.598 22.6418 19.4197 22.6418 18.6594C22.6568 18.4589 22.7531 18.2718 22.9101 18.1379C23.0672 18.004 23.2728 17.9337 23.4832 17.9421H28.6403C29.3445 17.9421 29.5785 18.2771 29.5785 19.0825V25.3023C29.5785 25.9746 29.8822 26.1979 30.0938 26.1979C30.5168 26.1979 30.843 25.9746 31.617 25.2358C33.2794 23.3005 34.6377 21.1445 35.649 18.8355C35.7524 18.5582 35.948 18.3207 36.2059 18.1594C36.4639 17.9981 36.7701 17.9218 37.0778 17.9421H40.3605C41.3438 17.9421 41.553 18.4124 41.3438 19.0825C40.1501 21.6349 38.6732 24.0578 36.9382 26.3096C36.585 26.8251 36.4432 27.0935 36.9382 27.697C37.2645 28.1674 38.4142 29.0845 39.1882 29.9565C40.313 31.0274 41.2471 32.2665 41.9535 33.6248C42.2347 34.4968 41.7645 34.9435 40.8285 34.9435Z" fill="white"/>
</svg>
